<?xml version="1.0" encoding="utf-8"?>
<!-- Generator: Adobe Illustrator 23.0.2, SVG Export Plug-In . SVG Version: 6.00 Build 0)  -->
<svg version="1.1" id="Слой_1" xmlns="http://www.w3.org/2000/svg" xmlns:xlink="http://www.w3.org/1999/xlink" x="0px" y="0px"
	 viewBox="0 0 22 24" style="enable-background:new 0 0 22 24;" xml:space="preserve">
<style type="text/css">
	.st0{fill:#FFC107;}
</style>
<path class="st0" d="M21,0.2C20.9,0.1,20.8,0,20.6,0H0.8C0.7,0,0.6,0.1,0.5,0.2C0.4,0.3,0.3,0.4,0.4,0.5l1.9,20
	c0,0.2,0.1,0.4,0.3,0.4l8.5,3c0,0,0.1,0,0.1,0c0.1,0,0.1,0,0.2,0l7.5-3c0.2-0.1,0.3-0.2,0.3-0.4l1.9-20C21.1,0.4,21.1,0.3,21,0.2z"
	/>
<path d="M11.2,24c-0.1,0-0.1,0-0.1,0l-8.5-3c-0.2-0.1-0.3-0.2-0.3-0.4l-1.9-20c0-0.1,0-0.3,0.1-0.4C0.6,0.1,0.7,0,0.8,0h19.8
	c0.1,0,0.3,0.1,0.3,0.2c0.1,0.1,0.1,0.2,0.1,0.4l-1.9,20c0,0.2-0.1,0.4-0.3,0.4l-7.5,3C11.3,24,11.3,24,11.2,24z M3.1,20.1l8,2.8
	l7.1-2.8L20.1,1H1.3L3.1,20.1z"/>
<path d="M12.1,18.5c-0.2,0-0.4-0.1-0.4-0.3c-0.1-0.3,0.1-0.5,0.3-0.6l2.6-0.9l0.8-4.6h-3.2c-0.3,0-0.5-0.2-0.5-0.5v-6
	c0-0.3,0.2-0.5,0.5-0.5h4.7c0.1,0,0.3,0.1,0.4,0.2c0.1,0.1,0.1,0.3,0.1,0.4l-0.5,2C16.8,7.9,16.5,8,16.3,8c-0.3-0.1-0.4-0.3-0.3-0.6
	L16.3,6h-3.6v5h3.3c0.1,0,0.3,0.1,0.4,0.2c0.1,0.1,0.1,0.3,0.1,0.4l-0.9,5.5c0,0.2-0.2,0.3-0.3,0.4l-2.8,1
	C12.2,18.5,12.2,18.5,12.1,18.5z"/>
<path d="M10.3,18.5c0,0-0.1,0-0.1,0l-3.3-1c-0.2-0.1-0.3-0.2-0.3-0.4L6,14.6C6,14.3,6.1,14.1,6.4,14c0.2-0.1,0.5,0.1,0.6,0.4
	l0.4,2.2l2.4,0.7V6H4.6C4.3,6,4.1,5.8,4.1,5.5C4.1,5.2,4.3,5,4.6,5h5.7c0.3,0,0.5,0.2,0.5,0.5V18c0,0.2-0.1,0.3-0.2,0.4
	C10.5,18.5,10.4,18.5,10.3,18.5z"/>
</svg>
